<?xml version="1.0" encoding="UTF-8"?>
<svg width="232px" height="84px" viewBox="0 0 232 84" version="1.1" xmlns="http://www.w3.org/2000/svg"
    xmlns:xlink="http://www.w3.org/1999/xlink">

    <g stroke="none" stroke-width="1" fill="none" fill-rule="evenodd">
        <g transform="translate(-604, -2083)">
            <g transform="translate(604, 2083)">
                <rect x="0" y="0" width="232" height="84"></rect>
                <g transform="translate(34, 0)" fill="#000000" fill-rule="nonzero">
                    <path
                        d="M94.7367834,31.000377 L94.7367834,41.4901977 C94.7367834,44.1604881 95.4433845,46.8222954 96.9749798,49.0062216 C97.1582075,49.2663699 97.3498918,49.5218054 97.5500328,49.7678152 L97.5500328,52.9584022 C95.8587005,51.4191914 94.497178,49.5274608 93.5669452,47.4038589 C92.6357729,49.5274608 91.2733107,51.4191914 89.5829181,52.9584022 L89.5829181,49.7678152 L89.6242618,49.7178592 C91.4931839,47.3906629 92.3971071,44.4291195 92.3971071,41.4402417 L92.3971071,31.000377 L94.7367834,31.000377 Z M91.5950397,34.243842 L91.5950397,43.5497994 L89.2553634,43.5497994 L89.2553634,34.243842 L91.5950397,34.243842 Z M97.8106859,34.243842 L97.8106859,43.5497994 L95.4710096,43.5497994 L95.4710096,34.243842 L97.8106859,34.243842 Z M102.08036,38.1640696 L104.595747,38.1640696 L104.595747,41.921139 C104.595747,42.353777 104.247145,42.7044117 103.815855,42.7044117 L102.08036,42.7044117 L102.08036,38.1640696 Z M107.262414,44.9995607 L105.848273,44.9995607 L105.848273,47.3465508 L108.349565,47.3465508 C109.641555,47.3465508 110.689242,46.2955894 110.689242,44.9995607 L110.689242,31.8865779 L109.957271,31.8865779 L108.349565,31.8865779 L102.127342,31.8865779 L102.127342,31.0382682 L99.8083372,31.0382682 L99.8083372,33.0638432 C99.7594765,33.6934775 99.2558354,34.1920951 98.6187669,34.2071762 L98.6187669,36.5598218 C98.689239,36.5645346 98.7559527,36.5815008 98.8273645,36.5815008 C99.1449591,36.5815008 99.4475197,36.5211765 99.740684,36.4363456 L99.740684,50.5333676 L99.740684,51.619204 L99.740684,52.8709321 L107.193822,52.8709321 C109.121001,52.8709321 110.689242,51.2977889 110.689242,49.3645853 L110.689242,48.4097656 L108.358962,48.4097656 L108.358962,49.3645853 C108.358962,50.0093007 107.836528,50.5333676 107.193822,50.5333676 L102.08036,50.5333676 L102.08036,45.0514018 L104.595747,45.0514018 C105.888677,45.0514018 106.935424,44.0004404 106.935424,42.7044117 L106.935424,35.8170795 L100.918979,35.8170795 C101.417922,35.4080057 101.793773,34.8632024 101.983578,34.2335681 L108.349565,34.2335681 L108.349565,43.9090114 C108.349565,44.5113113 107.862837,44.9995607 107.262414,44.9995607 L107.262414,44.9995607 Z M56.4252882,31.842183 L56.4252882,49.3088797 C56.4252882,51.2090934 54.9171836,52.7558447 53.0360462,52.8114561 L52.9336266,52.8123987 L50.6136825,52.8123987 L50.6136825,50.4767194 L52.6573757,50.4767194 C53.2634364,50.4767194 53.7623795,49.7368048 53.8168779,48.7914108 L53.8215761,48.6858433 L53.8215761,31.842183 L56.4252882,31.842183 Z M51.1749229,35.7615623 C51.1053904,41.8552536 48.7976615,46.9573652 44.920752,50.5419449 L44.920752,47.3174255 C47.301772,44.4586219 48.7675933,40.1708876 48.7600763,35.7615623 Z M61.5726701,35.7615623 C61.565153,40.1708876 63.0309744,44.4586219 65.4119944,47.3174255 L65.4119944,50.5975564 C61.5350849,47.0129766 59.1719179,41.8552536 59.1023853,35.7615623 L61.5726701,35.7615623 Z M33.9618584,45.1079558 L33.9618584,46.6650754 L42.306704,46.6650754 L42.306704,49.0016973 L33.9618584,49.0016973 L33.9618584,50.5588169 L43.471844,50.5588169 L43.471844,52.8954388 L22.123472,52.8954388 L22.123472,50.5588169 L31.632518,50.5588169 L31.632518,49.0016973 L23.288612,49.0016973 L23.288612,46.6650754 L31.632518,46.6650754 L31.632518,45.1079558 L33.9618584,45.1079558 Z M32.2156518,31.8699887 L32.2156518,34.594948 C32.2156518,36.5093002 30.6859357,38.0645346 28.7869454,38.0994096 L26.0911496,38.0994096 L26.0911496,35.7637302 L28.722111,35.7637302 C29.3507228,35.7637302 29.8628206,35.2641701 29.8863114,34.6392486 L29.887251,34.594948 L29.887251,34.2066107 L25.2558194,34.2066107 L25.2389061,39.2672493 L32.2156518,39.2672493 L32.2156518,41.9931511 C32.2156518,43.8943074 30.7075471,45.4410587 28.8254702,45.4957276 L28.722111,45.4976127 L25.2285702,45.4976127 L25.2285702,41.0072267 C25.1336676,42.623728 23.8125492,43.9075033 22.1851117,43.9395506 L22.1240358,43.9404931 L22.1240358,41.6038712 C22.5421707,41.6038712 22.8832561,41.2749156 22.9058071,40.8601864 L22.9067468,40.8215412 L22.933996,31.8699887 L32.2156518,31.8699887 Z M39.2024515,31.0911462 L39.2024515,32.6492083 L43.0831195,32.6492083 L43.0831195,34.9848877 L42.3069859,34.9848877 L42.3069859,35.827542 C42.2994688,36.2149367 42.2299363,36.5863079 42.1087241,36.9322297 L43.4721259,36.9312871 L43.4721259,39.2679091 L39.2024515,39.2679091 L39.2024515,40.8250286 L43.0831195,40.8250286 L43.0831195,43.1616506 L39.2024515,43.1616506 L39.2024515,45.4973299 L36.8731111,45.4973299 L36.8731111,43.1616506 L32.9915035,43.1616506 L32.9915035,40.8250286 L36.8731111,40.8250286 L36.8731111,39.2679091 L32.6034367,39.2679091 L32.6034367,36.9312871 L33.9668384,36.9322297 C33.8446867,36.5863079 33.7751541,36.2149367 33.7685767,35.827542 L33.7685767,34.9848877 L32.9915035,34.9848877 L32.9915035,32.6492083 L36.8731111,32.6492083 L36.8731111,31.0911462 L39.2024515,31.0911462 Z M29.887251,41.6038712 L27.5579106,41.6038712 L27.5579106,43.1609908 L28.722111,43.1609908 C29.3281717,43.1609908 29.8261751,42.6972482 29.8816132,42.1034314 L29.8863114,42.0365092 L29.887251,41.9931511 L29.887251,41.6038712 Z M39.9785851,34.9848877 L36.0969775,34.9848877 L36.0969775,35.7634475 C36.0969775,36.3940243 36.5940413,36.907723 37.2179549,36.9312871 L38.8576076,36.9312871 C39.4580306,36.9086656 39.9428792,36.4307844 39.9757662,35.8303697 L39.9785851,35.7634475 L39.9785851,34.9848877 Z M20.5712988,31.87046 L20.5712988,34.2061394 L11.4503196,34.2061394 L11.4503196,35.3739791 L11.44938,35.4380736 C11.4428026,35.8254683 11.37327,36.1968395 11.2511182,36.5427613 L19.7951652,36.5418187 L19.7951652,49.3908829 C19.7951652,51.2910967 18.2861209,52.8387906 16.4049836,52.8934594 L16.3016244,52.8953446 L0.777073224,52.8953446 L0.777073224,36.5418187 L8.00094135,36.5418187 C8.60136432,36.5191971 9.08527328,36.041316 9.11909992,35.4409013 L9.12097918,35.3739791 L9.12097918,34.2061394 L0,34.2061394 L0,31.87046 L20.5712988,31.87046 Z M17.4658248,38.8784407 L15.137424,38.8784407 L15.137424,50.5587226 L16.3016244,50.5587226 C16.9076851,50.5587226 17.4056885,50.0940374 17.4611266,49.5011632 L17.4648851,49.4351836 L17.4658248,49.3908829 L17.4658248,38.8784407 Z M12.8080836,48.2221007 L7.76227558,48.2221007 L7.76227558,50.5587226 L12.8080836,50.5587226 L12.8080836,48.2221007 Z M5.43481442,38.8784407 L3.10547401,38.8784407 L3.10547401,50.5587226 L5.43481442,50.5587226 L5.43481442,38.8784407 Z M12.8080836,43.5497994 L7.76227558,43.5497994 L7.76227558,45.8864213 L12.8080836,45.8864213 L12.8080836,43.5497994 Z M12.8080836,38.8774981 L7.76227558,38.8774981 L7.76227558,41.21412 L12.8080836,41.21412 L12.8080836,38.8774981 Z M87.6638197,31.8862009 L87.6638197,32.5620209 L87.673216,32.5620209 L87.673216,50.0004406 C87.673216,51.6046885 86.3774675,52.9044874 84.7791585,52.9044874 L82.8303679,52.9044874 L82.8303679,50.5574973 L84.5517683,50.5574973 C84.983058,50.5574973 85.3335397,50.2068626 85.3335397,49.7742247 L85.3335397,34.233191 L77.1878954,34.233191 L77.1878954,52.7668728 L74.8472795,52.7668728 L74.8472795,31.8862009 L87.6638197,31.8862009 Z M80.2904566,34.9561394 C80.2876377,37.0919947 80.6249645,39.1929751 81.2197497,41.1412597 C81.8145349,39.1929751 82.1518617,37.0919947 82.1481032,34.9561394 L84.5798632,34.9561394 C84.5394592,38.4615436 83.8272203,41.6172556 82.528653,44.3799176 C83.0567245,45.3912912 83.6590267,46.3282022 84.3411974,47.1463497 L84.3411974,50.4311934 C83.1431704,49.323678 82.1020614,48.0851458 81.2197497,46.730678 C80.337438,48.0851458 79.2963291,49.323678 78.098302,50.4311934 L78.098302,47.1463497 C78.7795331,46.3282022 79.3827749,45.3912912 79.9099068,44.3799176 C78.6113395,41.6172556 77.9000403,38.4615436 77.8605759,34.9561394 Z M70.4716149,31 L68.1526104,31 L68.1526104,33.0246325 C68.1037497,33.6552094 67.6001085,34.1538269 66.9639797,34.168908 L66.9639797,36.5215536 C67.0344519,36.5262664 67.1011655,36.54229 67.1725773,36.54229 C68.1441538,36.54229 69.019888,36.1058818 69.6297073,35.4272341 L74.0600583,35.4272341 L74.0600583,33.0811865 L70.4716149,33.0811865 L70.4716149,31 Z M71.6066868,40.0206425 L73.6485007,40.0206425 L73.6485007,37.6736524 L67.2355325,37.6736524 L67.2355325,40.0206425 L69.2773464,40.0206425 L69.2773464,42.8643652 L66.9639797,42.8643652 L66.9639797,45.2113553 L69.2773464,45.2113553 L69.2773464,49.2625054 C69.2773464,51.1627191 70.7863907,52.710413 72.6684676,52.7650819 L72.7708872,52.7660245 L73.9379065,52.7660245 L73.9379065,50.4303451 L72.7708872,50.4303451 C72.1657661,50.4303451 71.6668231,49.6904305 71.6123246,48.7459791 L71.6076264,48.6404116 L71.6066868,48.5697192 L71.6066868,45.2113553 L73.9379065,45.2113553 L73.9379065,42.8643652 L71.6066868,42.8643652 L71.6066868,40.0206425 Z M79.8676485,57.6539618 C82.0428527,57.6539618 83.8933087,58.1910202 85.4289076,59.2630548 L85.5875905,59.3761193 C86.9528868,60.3688637 88.0593524,61.6958047 88.9081215,63.3613792 L88.9397536,63.4249583 L84.5763062,65.3734499 L84.5276656,65.2748939 C84.0618034,64.3580262 83.4352601,63.6437908 82.6492243,63.1383466 C81.7487655,62.5593251 80.7108973,62.2701272 79.5438494,62.2701272 C78.2617029,62.2701272 77.1101553,62.6339985 76.0996386,63.3596981 C75.0953007,64.0809604 74.3158865,65.0910886 73.7623648,66.3828993 C73.2137196,67.6633295 72.9402654,69.10765 72.9402654,70.713297 C72.9402654,72.3611224 73.2132783,73.8422361 73.7610725,75.1543233 C74.3137492,76.4781051 75.0920146,77.5152371 76.0953796,78.2586757 C77.1065239,79.0078784 78.2597077,79.3838347 79.5438494,79.3838347 C80.648881,79.3838347 81.6506329,79.0875974 82.5403345,78.4964724 L82.6781907,78.4020265 C83.407411,77.8870969 84.0404382,77.1927376 84.5774727,76.3218918 L84.6106696,76.2665948 L89.0042293,78.2285904 L88.9749939,78.286919 C88.0689716,80.0548281 86.8433264,81.4288925 85.2956109,82.4151059 C83.6376705,83.4715552 81.7338953,84 79.5762293,84 C77.2886795,84 75.2603088,83.4388811 73.4832365,82.3168744 C71.7043352,81.193713 70.318221,79.6301158 69.3213833,77.6196823 C68.321305,75.6027132 67.8204068,73.3019568 67.8204068,70.713297 C67.8204068,68.1692453 68.3261063,65.9076207 69.3358878,63.9239501 C70.3423034,61.946892 71.7537979,60.4103708 73.5747022,59.3081144 C75.3958751,58.2056953 77.4911671,57.6539618 79.8676485,57.6539618 Z M49.7894603,64.4100359 C51.6118274,64.4100359 53.0076692,64.9913485 54.0055964,66.1541805 L54.0931952,66.2590964 C55.0425648,67.4278672 55.5226204,69.0817346 55.5226204,71.232995 L55.5226204,83.5449199 L50.7587914,83.5449199 L50.7589407,72.4997589 C50.7589407,71.4234363 50.4845389,70.5557701 49.9274861,69.9119421 C49.361024,69.257239 48.58254,68.9287578 47.6200066,68.9287578 C46.5127786,68.9287578 45.6052392,69.2844678 44.9205414,69.9954056 L44.8401999,70.0817456 C44.2106815,70.7820887 43.8982342,71.7131307 43.8982342,72.8570512 L43.8981498,83.5449199 L39.1343861,83.5449199 L39.1343861,64.8645606 L43.8981498,64.8645606 L43.8982342,67.3982994 L44.6141782,67.3982994 L44.7175494,67.2268049 C45.2480336,66.3467232 45.9440872,65.6586868 46.8093481,65.1583302 C47.6712669,64.6599061 48.6625496,64.4100359 49.7894603,64.4100359 Z M63.6762538,64.8645606 L63.6762538,83.5449199 L58.9128443,83.5449199 L58.9128443,64.8645606 L63.6762538,64.8645606 Z M35.4482879,64.8645606 L35.4482879,83.5449199 L30.6845242,83.5449199 L30.6845242,64.8645606 L35.4482879,64.8645606 Z M4.8092136,58.1086288 L12.9933284,70.5838448 L13.0983028,70.7438553 L13.6744916,70.7438553 L13.779466,70.5838448 L21.9632975,58.1086288 L26.4695126,58.1086288 L26.4695126,83.5449199 L21.6735111,83.5449199 L21.6737363,67.9868052 L20.9368161,67.9868052 L20.8314858,68.1434729 L15.3024598,76.366809 L11.4675715,76.366809 L5.90694549,68.2704789 L5.80134602,68.1167297 L5.06667818,68.1167297 L5.06640795,83.5449199 L0.302998493,83.5449199 L0.302998493,58.1086288 L4.8092136,58.1086288 Z M141,68.8230228 L141,83.5449199 L136.236236,83.5449199 L136.236236,74.3838466 L141,68.8230228 Z M100.977975,58.1086288 C103.000432,58.1086288 104.751556,58.4610691 106.234249,59.1628367 C107.705259,59.8590744 108.828599,60.8515309 109.612125,62.1442529 C110.397381,63.43983 110.791003,64.9620894 110.791003,66.7181186 C110.791003,68.4752877 110.407548,69.9931107 109.642999,71.278251 C108.880037,72.5607244 107.793311,73.5475185 106.375492,74.2430723 C104.947986,74.9433776 103.257853,75.2950584 101.301774,75.2950584 L96.8676437,75.2950584 L96.867433,83.5449199 L91.9095336,83.5449199 L91.9095336,58.1086288 Z M118.329345,58.1086288 L126.094418,67.3446852 L122.463231,71.4811875 L119.365581,68.2266978 L119.260917,68.1167297 L118.560808,68.1167297 L118.560678,83.5449199 L113.796915,83.5449199 L113.796915,58.1086288 L118.329345,58.1086288 Z M100.136097,62.5624573 L96.8676437,62.5624573 L96.8676437,70.8412987 L100.136097,70.8412987 C101.824012,70.8412987 103.169156,70.4868089 104.164099,69.7672817 C105.185196,69.0288409 105.703524,68.0010357 105.703524,66.7181186 C105.703524,65.4359658 105.185941,64.4036007 104.16628,63.6543046 C103.170982,62.9229119 101.824915,62.5624573 100.136097,62.5624573 Z M35.4482879,57.0151565 L35.4482879,61.7934564 L30.6845242,61.7934564 L30.6845242,57.0151565 L35.4482879,57.0151565 Z M63.6383477,57.0151565 L63.6383477,61.7934564 L58.874584,61.7934564 L58.874584,57.0151565 L63.6383477,57.0151565 Z">
                    </path>
                    <path
                        d="M146.075289,54.4392206 L143.922839,61.3853983 L140.293939,65.4157002 L140.027819,66.7625582 L133.716688,73.771779 L132.247247,74.3524568 L132.194,74.304 L128.74306,77.8883242 L131.138261,74.6781985 L127.915926,77.9202062 L130.525629,74.4705216 L127.045892,78 L129.955898,74.2149328 L126.302154,77.76037 L129.252654,73.7517027 L125.298608,77.6325224 L128.635211,73.1926489 L124.979062,76.5623977 L128.103569,72.5377716 L124.664327,75.8436498 L127.791239,71.9947121 L124.740506,75.0450726 L127.610016,71.4836056 L124.685578,74.2145423 L127.82,70.366 L127.716563,70.2730105 L128.140461,68.7509221 L134.451592,61.7417013 L135.763255,61.336254 L139.392155,57.305952 L146.075289,54.4392206 Z M181.09826,0 L175.581527,14.33314 L165.333806,40.9573402 L180.349536,42.40498 L188.42643,43.1835577 L181.623206,47.6300021 L171.534845,54.2232502 L189.629534,65.5817589 L198,70.8361217 L188.132528,70.8477721 L158.333776,70.8828314 L159.403441,76.7393627 L153.830066,77.7687624 L152.146694,68.552537 L151.533012,65.192719 L154.930055,65.1887081 L178.258274,65.161064 L164.761434,56.6887613 L160.988457,54.3203635 L164.717736,51.8829848 L171.731759,47.2984373 L161.071945,46.2710864 L157.350647,45.9123694 L158.700011,42.4065598 L164.780249,26.6091165 L153.361412,39.289459 L150.400716,42.5771568 L148.658379,38.5024631 L144.620587,29.0604376 L143.543065,40.0305474 L143.032578,45.2260226 L138.963685,41.9833236 L133.589474,37.7000712 L137.195684,47.2801331 L139.073775,52.2693238 L133.905855,51.0642713 L121,48.0548916 L122.280033,42.5039143 L130.017741,44.3079182 L124.656968,30.0666247 L121.02398,20.4155111 L129.066587,26.825055 L138.414235,34.2747035 L140.062523,17.5010517 L141.143246,6.50200608 L145.484977,16.6557356 L152.121404,32.1766746 L170.839078,11.3922873 L181.09826,0 Z">
                    </path>
                </g>
            </g>
        </g>
    </g>
</svg>
