<svg width="95" height="27" viewBox="0 0 95 27" fill="none" xmlns="http://www.w3.org/2000/svg">
<path d="M88.5309 10.8636V4.67621H93.6654V2.38516H89.8854L90.4366 1.20067L88.3419 0.218796L87.3496 2.38516H82.5774L81.5851 0.234381L79.4274 1.21626L79.9944 2.40075H76.1986V4.67621H81.3804V10.8792H75.4111V13.1547H94.5001V10.8636H88.5309ZM86.1684 10.8636H83.6799V4.67621H86.1684V10.8636Z" fill="black"/>
<path d="M74.3244 5.93785C73.9306 5.06507 72.5604 2.32205 71.7571 1.12197L69.5679 2.21295C70.3554 3.39744 71.7256 6.12488 72.1036 7.02883L74.3244 5.93785Z" fill="black"/>
<path d="M73.5682 20.1046V8.75849H68.7959V11.034H71.2057V22.0684C70.3552 22.7542 69.7094 23.2529 69.5046 23.4243L70.9064 25.1699C72.9215 23.6745 74.8219 22.0336 76.5921 20.2605L75.0959 18.6552C74.6213 19.1729 74.1108 19.6572 73.5682 20.1046Z" fill="black"/>
<path d="M77.1748 26.4959H92.7043V15.1498H77.1748V26.4959ZM79.5216 17.4876H90.3733V19.6695H79.5216V17.4876ZM79.5216 21.9762H90.3733V24.1737H79.5216V21.9762Z" fill="black"/>
<path d="M78.4982 5.56417L76.3877 6.37461L77.8997 10.0839L79.9472 9.22674L78.4982 5.56417Z" fill="black"/>
<path d="M92.0275 10.0839L93.4922 6.42137L91.4447 5.56417L89.917 9.28908L92.0275 10.0839Z" fill="black"/>
<path d="M47.8014 10.9098C48.1322 11.0968 50.3844 12.4527 52.4319 13.9022C52.7942 13.2787 53.2194 12.4683 53.5344 11.9072C51.5184 10.5669 48.9197 9.00835 48.9197 9.00835L49.0929 8.60313H53.6447V6.48352H49.0142V3.86517H53.2982V1.74556H45.1082C45.2657 1.40268 45.4074 1.04422 45.5177 0.748098L43.4859 0C42.8147 1.56494 42.0029 3.06716 41.0604 4.48859L43.0449 5.56398C43.3442 5.112 43.6907 4.51976 44.0529 3.88076H46.6989V6.4991H41.0604V8.61872H46.3997C45.9111 9.60709 45.1868 10.4629 44.2892 11.1124C43.2593 11.8462 42.1368 12.4436 40.9502 12.8891L41.6747 15.0711C42.9254 14.6388 44.116 14.0523 45.2184 13.3255C46.2153 12.6756 47.0895 11.858 47.8014 10.9098Z" fill="black"/>
<path d="M44.1001 26.4951H63.6616V14.8996H44.1001V26.4951ZM46.4311 17.2374H61.2991V19.5596H46.4311V17.2374ZM46.4311 21.8662H61.2833V24.1885H46.4311V21.8662Z" fill="black"/>
<path d="M55.062 12.7175H65.1893V1.43364H55.062V12.7175ZM57.393 3.7091H62.8898V10.4264H57.393V3.7091Z" fill="black"/>
<path d="M16.5376 0.0307374L14.3326 3.13223C14.1617 3.37577 13.9331 3.57415 13.6667 3.71001C13.4004 3.84586 13.1045 3.91504 12.8048 3.9115H0.787598V0.015152H16.5376V0.0307374Z" fill="black"/>
<path d="M31.5 0.0321655L12.6 26.5273H0L18.9 0.0321655H31.5Z" fill="black"/>
<path d="M14.9624 26.5272L17.1832 23.4101C17.3564 23.1689 17.5856 22.9723 17.8513 22.8368C18.1171 22.7012 18.4119 22.6306 18.7109 22.6308H30.7124V26.5272H14.9624Z" fill="black"/>
</svg>
